<svg width="67" height="67" viewBox="0 0 67 67" fill="none" xmlns="http://www.w3.org/2000/svg">
<path fill-rule="evenodd" clip-rule="evenodd" d="M45.0458 57.1018C45.8389 57.9431 45.8389 59.3074 45.0458 60.1486C44.2524 60.9899 42.9662 60.9899 42.1731 60.1486L36.251 53.8674C35.4578 53.0261 35.4578 51.6618 36.251 50.8206L42.1731 44.5393C42.9662 43.6978 44.2524 43.6978 45.0455 44.5393C45.8389 45.3806 45.8389 46.7449 45.0458 47.5861L40.5599 52.344L45.0458 57.1018ZM50.5481 47.5861C49.7548 46.7449 49.7548 45.3808 50.5481 44.5393C51.3412 43.698 52.6274 43.698 53.4208 44.5393L59.3427 50.8206C60.1358 51.662 60.1358 53.0261 59.3427 53.8674L53.4208 60.1486C52.6274 60.9901 51.3412 60.9901 50.5481 60.1486C49.7548 59.3074 49.7548 57.9431 50.5481 57.1018L55.0338 52.344L50.5481 47.5861Z" fill="white"/>
<path fill-rule="evenodd" clip-rule="evenodd" d="M14.6562 12.5625C14.6562 9.09345 17.4685 6.28125 20.9375 6.28125H46.0625C49.5316 6.28125 52.3438 9.09347 52.3438 12.5625V37.6875C52.3438 38.8439 51.4064 39.7812 50.25 39.7812H41.5157C40.9604 39.7812 40.428 40.0019 40.0352 40.3945L30.8334 49.5963C30.1963 50.2337 30.0382 51.2071 30.4412 52.0131L33.2789 57.6887C33.6034 58.3377 33.5689 59.1084 33.1874 59.7257C32.8057 60.3429 32.1319 60.7188 31.4062 60.7188H20.9375C17.4685 60.7188 14.6562 57.9066 14.6562 54.4375V12.5625ZM27.2188 10.4688C26.0624 10.4688 25.125 11.4062 25.125 12.5625C25.125 13.7188 26.0624 14.6562 27.2188 14.6562H39.7812C40.9376 14.6562 41.875 13.7188 41.875 12.5625C41.875 11.4062 40.9376 10.4688 39.7812 10.4688H27.2188Z" fill="url(#paint0_linear_74_10409)"/>
<defs>
<linearGradient id="paint0_linear_74_10409" x1="41.6854" y1="18.5498" x2="15.5595" y2="41.8619" gradientUnits="userSpaceOnUse">
<stop stop-color="#9DE8EE"/>
<stop offset="0.0001" stop-color="#9DE8EE"/>
<stop offset="0.490049" stop-color="#FA7C0B"/>
<stop offset="1" stop-color="#9F8CED"/>
</linearGradient>
</defs>
</svg>
