<svg width="217" height="221" viewBox="0 0 217 221" fill="none" xmlns="http://www.w3.org/2000/svg">
<path d="M16.009 158.227C15.6926 158.46 15.2817 158.456 14.9695 158.278C14.8481 158.209 14.7366 158.123 14.6621 158.012C13.5231 156.422 12.4386 154.818 11.4085 153.198C11.1205 152.736 11.2506 152.144 11.713 151.856C12.1753 151.568 12.7671 151.699 13.055 152.161C14.043 153.733 15.1102 155.328 16.2243 156.88C16.532 157.308 16.4366 157.919 16.009 158.227ZM87.6705 25.4298C88.1726 25.2334 88.4092 24.6563 88.2029 24.1715C88.0064 23.6694 87.4293 23.4328 86.9446 23.6392C85.1365 24.3553 83.3632 25.0911 81.6245 25.8467C81.1398 26.0531 80.9032 26.6302 81.1095 27.1149C81.1966 27.3252 81.3404 27.4759 81.5138 27.5746C81.774 27.7226 82.0859 27.7394 82.3777 27.6299C84.1065 26.8917 85.8799 26.1558 87.6607 25.4472L87.6705 25.4298ZM10.1997 147.253C9.29819 145.569 8.46095 143.853 7.70296 142.159C7.4793 141.664 6.90965 141.455 6.4249 141.661C5.93028 141.885 5.72092 142.454 5.92724 142.939C6.70017 144.688 7.56223 146.441 8.48858 148.162C8.57798 148.328 8.71435 148.451 8.87044 148.54C9.14794 148.698 9.50439 148.717 9.80852 148.546C10.2783 148.285 10.4703 147.705 10.2096 147.236L10.1997 147.253ZM67.2407 33.573C67.0072 33.0957 66.4004 32.9112 65.9405 33.1546C64.1947 34.0438 62.4934 34.9355 60.8268 35.8469C60.357 36.1076 60.1824 36.697 60.4431 37.1668C60.5325 37.3325 60.6689 37.456 60.825 37.5448C61.1025 37.7027 61.4589 37.7219 61.763 37.5506C63.4198 36.6565 65.1037 35.755 66.8223 34.8732C67.2996 34.6397 67.5015 34.0428 67.2407 33.573ZM3.96843 131.493C3.82641 130.976 3.29862 130.652 2.77171 130.812C2.25466 130.954 1.93137 131.482 2.09073 132.008C2.57181 133.866 3.14199 135.729 3.79382 137.569C3.87096 137.797 4.03962 137.985 4.2304 138.093C4.47321 138.232 4.7579 138.256 5.03989 138.164C5.54946 137.994 5.80337 137.427 5.63414 136.918C4.99727 135.132 4.4519 133.306 3.98577 131.503L3.96843 131.493ZM108.652 15.8328C106.797 16.4302 104.986 17.03 103.175 17.6298C102.666 17.799 102.395 18.3564 102.564 18.866C102.641 19.0936 102.81 19.2814 103 19.3899C103.226 19.5182 103.528 19.5523 103.783 19.4677C105.576 18.858 107.387 18.2582 109.215 17.6683C109.724 17.4991 110.013 16.9516 109.844 16.442C109.675 15.9324 109.127 15.6438 108.617 15.8131L108.652 15.8328ZM31.5338 173.673C30.1009 172.399 28.7149 171.082 27.3735 169.768C27.0015 169.372 26.3654 169.401 25.9973 169.765C25.6193 170.147 25.6303 170.773 26.022 171.134C27.371 172.476 28.8015 173.795 30.2419 175.096C30.2939 175.126 30.3534 175.183 30.4055 175.212C30.787 175.43 31.3092 175.359 31.613 175.027C31.9736 174.635 31.9354 174.017 31.5437 173.656L31.5338 173.673ZM98.9747 20.1299C98.7956 19.6376 98.2382 19.3664 97.7287 19.5356C95.9057 20.1973 94.1001 20.8689 92.3217 21.533C91.8196 21.7294 91.5755 22.2793 91.7448 22.7889C91.8318 22.9991 91.9831 23.1771 92.1739 23.2856C92.4167 23.4238 92.7187 23.4579 93.0106 23.3485C94.7716 22.6745 96.5674 22.0203 98.3904 21.3586C98.8826 21.1795 99.1538 20.6221 98.9846 20.1125L98.9747 20.1299ZM131.962 10.1323C131.82 9.61528 131.293 9.292 130.776 9.43402C128.89 9.92257 127.05 10.4135 125.209 10.9045C124.692 11.0465 124.386 11.5841 124.528 12.1012C124.586 12.3634 124.772 12.5611 124.98 12.6795C125.188 12.798 125.463 12.8395 125.708 12.7723C127.531 12.2715 129.372 11.7805 131.247 11.3093C131.764 11.1673 132.087 10.6395 131.945 10.1225L131.962 10.1323ZM23.4281 165.686C22.1286 164.258 20.8834 162.814 19.7002 161.384C19.3653 160.963 18.7513 160.913 18.3312 161.247C17.911 161.582 17.8602 162.196 18.1951 162.616C19.3858 164.075 20.6557 165.555 21.99 167.003C22.0569 167.087 22.1437 167.136 22.2304 167.186C22.5946 167.393 23.0524 167.355 23.3638 167.05C23.7591 166.678 23.7828 166.071 23.4281 165.686ZM114.721 15.9802C116.53 15.4249 118.355 14.8796 120.216 14.354C120.733 14.2119 121.021 13.6644 120.897 13.1572C120.755 12.6402 120.207 12.3516 119.7 12.4763C117.83 13.0192 115.987 13.5547 114.178 14.11C113.669 14.2792 113.373 14.7995 113.532 15.3264C113.599 15.5714 113.768 15.7592 113.976 15.8776C114.202 16.0059 114.477 16.0475 114.731 15.9628L114.721 15.9802ZM9.94656 82.7762C10.4148 83.0426 10.9863 82.8857 11.2701 82.4273C12.1978 80.7969 13.2221 79.1986 14.2811 77.62C14.5822 77.1715 14.4623 76.5752 14.0138 76.274C13.5727 76.0001 12.9689 76.0928 12.6678 76.5413C11.5717 78.1447 10.5352 79.805 9.57042 81.4601C9.30396 81.9284 9.45106 82.5172 9.91934 82.7837L9.94656 82.7762ZM6.3433 92.6189C7.00844 90.8851 7.77256 89.1387 8.60606 87.4319C8.83783 86.9438 8.63631 86.37 8.14829 86.1382C7.66027 85.9064 7.0864 86.1079 6.85463 86.596C6.00139 88.3375 5.225 90.1458 4.53025 91.9316C4.36277 92.3874 4.53201 92.8969 4.94827 93.1338C4.98295 93.1535 5.03499 93.1831 5.06967 93.2029C5.57743 93.4 6.13635 93.144 6.32356 92.6536L6.3433 92.6189ZM16.2705 73.1958C16.2705 73.1958 16.3572 73.2452 16.3919 73.2649C16.8081 73.5018 17.35 73.3968 17.6389 73.0102C18.7723 71.5428 19.9874 70.0531 21.2446 68.6103C21.5879 68.2087 21.5496 67.59 21.148 67.2467C20.7465 66.9033 20.1277 66.9416 19.7844 67.3432C18.5075 68.8207 17.2652 70.3179 16.112 71.8199C15.7762 72.2488 15.8689 72.8525 16.2803 73.1785L16.2705 73.1958ZM23.7196 64.4624C23.7196 64.4624 23.8386 64.5761 23.908 64.6155C24.2896 64.8327 24.7671 64.76 25.0784 64.455C26.3656 63.121 27.7517 61.7745 29.1527 60.4824C29.5481 60.1105 29.5717 59.504 29.1997 59.1087C28.8277 58.7133 28.2213 58.6897 27.8259 59.0617C26.4052 60.3884 25.0092 61.7523 23.685 63.1111C23.307 63.4929 23.318 64.1191 23.7097 64.4798L23.7196 64.4624ZM71.0625 32.3037C71.3227 32.4518 71.6692 32.4883 71.9635 32.3343C73.66 31.5317 75.3837 30.7217 77.1519 29.9141C77.6466 29.6904 77.8559 29.1208 77.6322 28.6261C77.4086 28.1315 76.8389 27.9222 76.3443 28.1458C74.5587 28.9436 72.835 29.7536 71.1188 30.5908C70.6415 30.8244 70.4322 31.394 70.6558 31.8886C70.7354 32.0717 70.8792 32.2224 71.0526 32.3211L71.0625 32.3037ZM2.10919 120.356C2.06615 119.826 1.60505 119.426 1.05811 119.459C0.528512 119.502 0.128382 119.963 0.161549 120.51C0.308595 122.43 0.552214 124.383 0.870009 126.286C0.925021 126.593 1.10863 126.835 1.35144 126.973C1.54222 127.081 1.77248 127.121 1.99766 127.088C2.52966 127 2.88762 126.492 2.79016 125.978C2.46996 124.12 2.24129 122.221 2.09933 120.373L2.10919 120.356ZM41.0603 49.4415C41.1521 49.5627 41.2463 49.6392 41.3677 49.7083C41.6973 49.8958 42.1007 49.8728 42.4072 49.6569C43.9225 48.5676 45.4823 47.4806 47.0867 46.3961C47.5317 46.0983 47.6445 45.4966 47.3466 45.0516C47.0488 44.6067 46.4472 44.4939 46.0022 44.7917C44.3706 45.8837 42.7835 46.9781 41.2584 48.0848C40.8307 48.3925 40.7353 49.004 41.043 49.4317L41.0603 49.4415ZM4.5264 97.9908C4.67893 97.4806 4.39577 96.9292 3.87575 96.794C3.36559 96.6414 2.8315 96.9345 2.67897 97.4446C2.12296 99.3094 1.6537 101.224 1.27593 103.098C1.19996 103.514 1.40119 103.927 1.74806 104.124C1.83478 104.174 1.9215 104.223 2.02797 104.238C2.54051 104.346 3.05966 103.998 3.16764 103.486C3.54301 101.656 4.00001 99.8035 4.5264 97.9908ZM38.0151 51.7267C37.6802 51.3065 37.0762 51.2383 36.6659 51.5559C35.1261 52.769 33.6308 53.9845 32.1801 55.2025C31.7773 55.5472 31.7264 56.1611 32.0712 56.564C32.1382 56.648 32.2324 56.7246 32.3365 56.7838C32.6833 56.9812 33.1313 56.9605 33.4501 56.6827C34.8736 55.4723 36.3416 54.2642 37.8715 53.0685C38.2917 52.7335 38.3599 52.1295 38.0423 51.7192L38.0151 51.7267ZM2.28672 109.069C2.34266 108.526 1.9656 108.059 1.42344 108.003C0.881283 107.947 0.414169 108.324 0.358225 108.867C0.156285 110.795 0.0335968 112.746 1.28467e-05 114.701C-0.00179148 115.067 0.186881 115.382 0.499071 115.559C0.637821 115.638 0.796316 115.682 0.957203 115.682C1.50175 115.693 1.9267 115.269 1.93809 114.725C1.97675 112.841 2.08718 110.953 2.27685 109.086L2.28672 109.069ZM57.1521 39.0366C56.8914 38.5668 56.2921 38.4095 55.8124 38.6875C54.1237 39.6782 52.4795 40.6712 50.8626 41.6568C50.4003 41.9447 50.2702 42.5365 50.5581 42.9989C50.64 43.1373 50.7591 43.251 50.8978 43.3299C51.1927 43.4977 51.5763 43.5094 51.8903 43.3207C53.4899 42.3253 55.1242 41.3496 56.7857 40.3664C57.2555 40.1056 57.4128 39.5064 57.1249 39.0441L57.1521 39.0366ZM170.186 218.543C168.265 218.53 166.364 218.481 164.463 218.432C163.918 218.421 163.476 218.835 163.465 219.38C163.463 219.746 163.659 220.087 163.954 220.255C164.093 220.334 164.251 220.378 164.412 220.378C166.313 220.427 168.241 220.468 170.179 220.491C170.706 220.493 171.159 220.061 171.16 219.534C171.162 219.007 170.73 218.555 170.203 218.553L170.186 218.543ZM147.303 217.439C145.382 217.264 143.489 217.082 141.605 216.882C141.062 216.827 140.595 217.204 140.539 217.746C140.501 218.137 140.704 218.505 141.034 218.693C141.138 218.752 141.269 218.804 141.403 218.811C143.304 219.02 145.225 219.195 147.146 219.37C147.671 219.416 148.148 219.021 148.194 218.497C148.24 217.972 147.846 217.495 147.321 217.449L147.303 217.439ZM158.737 218.205C156.812 218.12 154.906 217.999 153.027 217.872C152.492 217.843 152.032 218.247 151.986 218.772C151.957 219.146 152.171 219.497 152.483 219.674C152.604 219.744 152.746 219.778 152.897 219.795C154.803 219.915 156.709 220.036 158.652 220.131C159.187 220.16 159.629 219.746 159.658 219.211C159.686 218.676 159.282 218.217 158.737 218.205ZM113.358 212.335C111.476 211.93 109.614 211.49 107.779 211.043C107.259 210.908 106.732 211.228 106.614 211.758C106.511 212.182 106.72 212.622 107.084 212.829C107.153 212.868 107.24 212.918 107.329 212.923C109.181 213.38 111.053 213.802 112.953 214.217C113.483 214.335 113.992 214.004 114.11 213.475C114.228 212.945 113.897 212.435 113.367 212.318L113.358 212.335ZM135.921 216.22C134.012 215.983 132.123 215.712 130.244 215.423C129.711 215.35 129.21 215.707 129.136 216.239C129.07 216.638 129.281 217.034 129.611 217.221C129.715 217.28 129.829 217.322 129.953 217.347C131.832 217.635 133.748 217.899 135.657 218.136C136.189 218.209 136.683 217.825 136.729 217.3C136.803 216.767 136.418 216.273 135.893 216.227L135.921 216.22ZM124.599 214.53C122.695 214.204 120.828 213.853 118.961 213.503C118.439 213.412 117.929 213.742 117.811 214.272C117.735 214.688 117.937 215.101 118.284 215.299C118.37 215.348 118.457 215.397 118.591 215.405C120.475 215.765 122.359 216.125 124.263 216.451C124.786 216.542 125.287 216.184 125.378 215.662C125.469 215.14 125.111 214.638 124.589 214.547L124.599 214.53ZM181.648 218.453C179.715 218.501 177.819 218.525 175.923 218.548C175.396 218.546 174.961 218.988 174.959 219.515C174.958 219.881 175.156 220.178 175.451 220.346C175.59 220.425 175.766 220.479 175.936 220.461C177.85 220.448 179.773 220.417 181.706 220.369C182.243 220.353 182.66 219.902 182.662 219.375C182.646 218.838 182.195 218.42 181.667 218.419L181.648 218.453ZM204.52 217.073C202.607 217.247 200.704 217.404 198.801 217.561C198.272 217.604 197.872 218.065 197.905 218.612C197.923 218.944 198.131 219.223 198.391 219.371C198.547 219.46 198.75 219.506 198.938 219.499C200.842 219.342 202.762 219.195 204.685 219.003C205.214 218.96 205.607 218.472 205.564 217.942C205.521 217.412 205.033 217.02 204.503 217.063L204.52 217.073ZM216.992 216.661C216.922 216.139 216.433 215.747 215.911 215.817C214.003 216.063 212.115 216.274 210.227 216.486C209.688 216.546 209.305 217.017 209.365 217.556C209.41 217.881 209.584 218.14 209.844 218.288C210.018 218.387 210.221 218.434 210.436 218.418C212.324 218.207 214.239 217.988 216.147 217.742C216.669 217.672 217.062 217.184 216.992 216.661ZM193.087 217.96C191.159 218.08 189.268 218.175 187.36 218.26C186.823 218.276 186.405 218.727 186.439 219.274C186.447 219.623 186.645 219.919 186.923 220.077C187.079 220.166 187.255 220.22 187.443 220.212C189.351 220.127 191.269 220.025 193.197 219.905C193.744 219.872 194.144 219.411 194.101 218.881C194.058 218.352 193.607 217.934 193.077 217.977L193.087 217.96ZM49.8078 187.355C48.1823 186.338 46.5938 185.296 45.0251 184.22C44.579 183.874 43.9803 184.039 43.689 184.47C43.3878 184.919 43.5077 185.515 43.9389 185.806C45.5076 186.883 47.1308 187.944 48.7737 188.971L48.8083 188.99C49.2593 189.247 49.8209 189.107 50.1122 188.676C50.396 188.218 50.2587 187.611 49.8177 187.338L49.8078 187.355ZM164.88 3.9293C165.412 3.8417 165.753 3.32378 165.665 2.79179C165.568 2.27714 165.06 1.91917 164.528 2.00676C162.623 2.36911 160.745 2.72399 158.884 3.08874C158.36 3.20355 158.011 3.69425 158.116 4.23612C158.181 4.52559 158.348 4.75795 158.59 4.89611C158.781 5.00467 159.029 5.05373 159.264 5.0038C161.124 4.63906 163.002 4.28418 164.908 3.92183L164.88 3.9293ZM153.228 4.23261C151.33 4.62218 149.45 5.02162 147.604 5.44079C147.08 5.5556 146.739 6.07351 146.854 6.59804C146.919 6.88751 147.095 7.10252 147.32 7.23082C147.528 7.34925 147.759 7.38843 148.011 7.34837C149.857 6.9292 151.727 6.54711 153.625 6.15755C154.15 6.04274 154.48 5.54216 154.375 5.0003C154.261 4.47578 153.743 4.13515 153.218 4.24996L153.228 4.23261ZM102.234 209.61C100.385 209.109 98.5446 208.59 96.7318 208.063C96.2217 207.911 95.6876 208.204 95.535 208.714C95.4046 209.145 95.5936 209.62 95.9752 209.837C96.0446 209.876 96.0966 209.906 96.1758 209.928C98.0059 210.464 99.8632 210.993 101.73 211.505C102.25 211.64 102.785 211.347 102.92 210.827C103.055 210.307 102.745 209.763 102.242 209.637L102.234 209.61ZM59.689 193.069C58.3858 192.374 57.1098 191.671 55.8611 190.96L54.6991 190.299C54.3049 189.983 53.642 190.179 53.3755 190.648C53.109 191.116 53.2561 191.705 53.7244 191.971L54.9038 192.642C56.1699 193.363 57.4533 194.093 58.7837 194.781C59.252 195.048 59.8432 194.856 60.0923 194.378C60.3588 193.91 60.1746 193.346 59.689 193.069ZM40.3955 180.897C38.849 179.741 37.3568 178.571 35.8918 177.393C35.4804 177.067 34.8617 177.105 34.5258 177.534C34.1726 177.953 34.2381 178.564 34.6669 178.9C36.1393 180.105 37.6662 181.296 39.2301 182.461C39.2648 182.481 39.2995 182.5 39.3342 182.52C39.7504 182.757 40.2923 182.652 40.591 182.248C40.9095 181.809 40.8169 181.206 40.3955 180.897ZM141.995 6.70338C140.113 7.14738 138.23 7.59137 136.392 8.03775C135.875 8.17977 135.561 8.69022 135.676 9.21474C135.751 9.48686 135.91 9.69202 136.135 9.82032C136.343 9.93874 136.591 9.98779 136.836 9.92052C138.674 9.47413 140.539 9.02028 142.412 8.59363C142.937 8.47882 143.26 7.95103 143.145 7.42651C143.03 6.90199 142.503 6.57871 141.978 6.69352L141.995 6.70338ZM80.4948 202.544C78.709 201.849 76.933 201.137 75.1843 200.417C74.6864 200.203 74.12 200.431 73.9229 200.939C73.7282 201.402 73.9148 201.922 74.3311 202.159C74.3657 202.178 74.4004 202.198 74.4351 202.218C76.1913 202.965 77.9673 203.677 79.7977 204.374C80.3055 204.571 80.8644 204.315 81.0516 203.825C81.2487 203.317 81.0101 202.768 80.5023 202.571L80.4948 202.544ZM91.2735 206.358C89.4557 205.76 87.6379 205.162 85.8496 204.511C85.3494 204.342 84.7904 204.598 84.6206 205.098C84.4531 205.554 84.6594 206.038 85.0583 206.265C85.1103 206.295 85.1624 206.325 85.2144 206.354C87.0125 206.987 88.8378 207.612 90.6829 208.203C91.1832 208.373 91.7346 208.09 91.9143 207.572C92.0842 207.072 91.801 206.52 91.3008 206.35L91.2735 206.358ZM176.988 0.808459C176.9 0.276465 176.392 -0.0815087 175.878 0.0159545C173.975 0.333749 172.072 0.651546 170.204 0.98908C169.672 1.07668 169.314 1.58473 169.419 2.12659C169.474 2.43341 169.658 2.67564 169.9 2.8138C170.091 2.92237 170.321 2.96155 170.547 2.92896C172.415 2.59143 174.29 2.28111 176.193 1.96331C176.725 1.87571 177.083 1.36766 176.986 0.853013L176.988 0.808459ZM69.9279 198.115C68.174 197.324 66.4573 196.507 64.7603 195.657C64.2723 195.425 63.6984 195.626 63.4591 196.087C63.2372 196.558 63.4041 197.112 63.8377 197.359L63.8897 197.388C65.5966 198.222 67.348 199.058 69.1192 199.859C69.6072 200.091 70.1736 199.862 70.4054 199.374C70.6372 198.886 70.3986 198.337 69.9204 198.088L69.9279 198.115Z" fill="#446EEB"/>
</svg>
