<svg width="293" height="69" viewBox="0 0 293 69" fill="none" xmlns="http://www.w3.org/2000/svg">
<path d="M45.3396 49.9399H25.2503C24.0518 49.9399 23.0808 49.7687 22.2818 49.5397C21.5405 49.254 21.0267 48.8538 20.5695 48.2813C20.1134 47.6533 19.7705 46.7951 19.5996 45.709C19.543 45.4233 19.543 45.0232 19.4853 44.7375C19.4853 44.7375 19.543 40.6211 19.5996 40.6211H45.1121C45.5682 40.6211 46.7101 40.3921 46.7101 38.6202V34.1036C46.7101 32.3305 45.5682 32.1593 45.1121 32.1593L15.6612 32.216C14.0066 32.3305 12.5795 33.1887 11.7805 34.6172C11.4953 35.0752 11.2667 35.532 11.1524 36.0467L11.0381 43.2512V43.5369C11.0958 46.2237 11.381 48.5103 11.7805 50.3968C12.2943 52.6845 13.1499 54.571 14.2352 56.0005C15.376 57.4868 16.8597 58.5162 18.6863 59.1442C20.4563 59.8301 22.567 60.1169 25.0783 60.1169H45.3396C45.8534 60.1169 46.9953 59.9446 46.9953 58.1727V51.8842C46.9953 50.1111 45.8534 49.9399 45.3396 49.9399ZM45.3973 12.9492H12.5795C12.1234 12.9492 11.0381 13.1782 11.0381 15.008V19.4667C11.0381 21.2398 12.1234 21.411 12.5795 21.411L45.3973 21.4677C45.8534 21.4677 46.9953 21.2398 46.9953 19.4667V14.9502C46.9953 13.1782 45.8534 12.9492 45.3973 12.9492Z" fill="white"/>
<path d="M83.2936 18.3807C83.1793 18.095 83.0661 17.7515 82.9518 17.5236C82.0385 14.55 79.2986 12.4346 76.1592 12.4346C74.7332 12.4346 73.3627 12.8348 72.2219 13.6351C71.879 13.8075 71.5938 14.0353 71.3652 14.2076C70.5096 14.9502 69.6529 16.3231 68.8539 18.3807L52.9305 58.0015C52.7596 58.5162 52.7019 59.0298 52.8162 59.3733C52.8739 59.7168 53.1591 60.2303 54.0724 60.2303H60.3501C61.0925 60.2303 61.6629 59.7734 61.9481 59.0298L65.2018 50.8548H77.7006C78.3287 50.8548 78.8991 50.5691 79.1843 50.0544C79.5272 49.5964 79.5838 48.9684 79.4129 48.3959L77.3588 43.3079C77.0725 42.6221 76.4455 42.1641 75.7031 42.1641H68.6264L75.9317 23.641C75.9883 23.5264 76.046 23.4686 76.046 23.4686H76.2735C76.2735 23.4686 76.2735 23.4686 76.3312 23.5831L90.4857 58.9731C90.7709 59.7734 91.3413 60.2303 92.1403 60.2303H98.2471C99.1604 60.2303 99.389 59.6589 99.5033 59.3733C99.6176 59.0298 99.5599 58.5162 99.3313 58.0015L83.2936 18.3807Z" fill="white"/>
<path d="M132.89 32.0446H115.769C114.913 32.0446 113.829 31.7022 113.829 28.8998V24.67C113.829 23.6407 114 22.8403 114.285 22.2678C114.513 21.9254 114.855 21.5252 115.826 21.5252H139.055C139.511 21.5252 140.653 21.354 140.653 19.581V15.0077C140.653 13.2347 139.511 13.0635 139.055 13.0635H114.456C111.317 13.0635 109.034 14.0929 107.55 16.2083C106.066 18.2659 105.324 21.0105 105.324 24.3265V28.6719C105.324 32.616 106.123 35.8186 107.55 37.8195C109.32 40.1628 111.944 40.5063 114.343 40.5063H131.464C132.32 40.5063 133.462 40.8487 133.462 43.6512V48.5679C133.462 49.5962 133.291 50.3965 132.948 50.969C132.72 51.3114 132.378 51.7116 131.407 51.7116H107.036C106.523 51.7116 105.382 51.8839 105.382 53.6558V58.2291C105.382 60.0022 106.523 60.1733 107.036 60.1733H132.777C135.916 60.1733 138.256 59.0873 139.74 56.9718C141.167 54.9131 141.909 52.2263 141.909 48.9103V43.879C141.909 40.1628 141.167 37.247 139.683 35.1894C138.142 33.1307 135.859 32.0446 132.89 32.0446Z" fill="white"/>
<path d="M189.85 13.0635H183.515C183.002 13.0635 182.316 13.2347 181.86 14.0929L169.304 37.0192L156.862 14.1495C156.406 13.2347 155.721 13.0635 155.207 13.0635H148.701C148.187 13.0635 147.787 13.3492 147.673 13.8639C147.559 14.264 147.615 14.722 147.844 15.1222L164.966 45.7088V58.2291C164.966 60.0022 166.108 60.1733 166.564 60.1733H171.815C172.272 60.1733 173.413 60.0022 173.413 58.2291V45.7088L190.707 15.1222C190.935 14.722 190.992 14.264 190.878 13.8072C190.707 13.3492 190.308 13.0635 189.85 13.0635Z" fill="white"/>
<path d="M230.944 49.9399H210.855C209.656 49.9399 208.685 49.7687 207.886 49.5397C207.145 49.254 206.631 48.8538 206.174 48.2813C205.718 47.6533 205.375 46.7951 205.204 45.709C205.147 45.4233 205.147 45.0232 205.09 44.7375C205.09 44.7375 205.147 40.6211 205.204 40.6211H230.717C231.173 40.6211 232.315 40.3921 232.315 38.6202V34.1036C232.315 32.3305 231.173 32.1593 230.717 32.1593L201.266 32.216C199.611 32.3305 198.184 33.1887 197.385 34.6172C197.1 35.0752 196.871 35.532 196.757 36.0467L196.642 43.2512V43.5369C196.7 46.2237 196.985 48.5103 197.385 50.3968C197.899 52.6845 198.754 54.571 199.84 56.0005C200.98 57.4868 202.464 58.5162 204.291 59.1442C206.061 59.8301 208.171 60.1169 210.683 60.1169H230.944C231.458 60.1169 232.6 59.9446 232.6 58.1727V51.8842C232.6 50.1111 231.458 49.9399 230.944 49.9399ZM231.002 12.9492H198.184C197.728 12.9492 196.642 13.1782 196.642 15.008V19.4667C196.642 21.2398 197.728 21.411 198.184 21.411L231.002 21.4677C231.458 21.4677 232.6 21.2398 232.6 19.4667V14.9502C232.6 13.1782 231.458 12.9492 231.002 12.9492Z" fill="#265AE8"/>
<path d="M277.289 23.6973C276.717 21.2962 275.747 19.2953 274.549 17.6945C273.292 16.1505 271.638 14.9499 269.697 14.2074C267.757 13.4637 265.473 13.0635 262.791 13.0635H242.873V13.1213C241.217 13.2347 239.791 14.1495 238.934 15.5224C238.706 15.9793 238.478 16.494 238.364 16.9508L238.306 56.0003C238.421 56.6283 238.649 57.2575 238.934 57.7722C239.848 59.3163 241.503 60.23 243.272 60.23H262.791C265.473 60.23 267.814 59.8298 269.697 59.0873C271.638 58.3436 273.292 57.143 274.549 55.5423C275.747 53.9982 276.717 51.9973 277.289 49.5962C277.859 47.195 278.144 44.337 278.144 41.1355V32.1591C278.144 28.9576 277.859 26.0985 277.289 23.6973ZM246.697 51.4259V21.8676C246.697 21.6397 246.753 21.5252 246.811 21.5252H262.62C263.933 21.5252 265.074 21.6964 265.987 22.0399C266.9 22.3823 267.585 22.8403 268.099 23.5828C268.671 24.3265 269.07 25.2981 269.297 26.4987C269.526 27.8137 269.697 29.4145 269.697 31.3009V41.9926C269.697 43.879 269.526 45.4798 269.297 46.7382C269.07 47.9954 268.671 48.9681 268.099 49.7107C267.585 50.3965 266.9 50.9112 265.987 51.2547C265.074 51.5971 263.933 51.7116 262.62 51.7116H246.753C246.753 51.7116 246.697 51.6549 246.697 51.4259Z" fill="#265AE8"/>
</svg>
