<svg width="505" height="64" viewBox="0 0 505 64" fill="none" xmlns="http://www.w3.org/2000/svg">
<path d="M14.3 13.667H29.7C35.5667 13.667 40.3333 18.4337 40.3333 24.3003V39.7003C40.3333 42.5205 39.213 45.2251 37.2189 47.2192C35.2248 49.2134 32.5201 50.3337 29.7 50.3337H14.3C8.43332 50.3337 3.66666 45.567 3.66666 39.7003V24.3003C3.66666 21.4802 4.78695 18.7756 6.78109 16.7814C8.77522 14.7873 11.4799 13.667 14.3 13.667ZM13.9333 17.3337C12.1829 17.3337 10.5042 18.029 9.26642 19.2668C8.02868 20.5045 7.33332 22.1832 7.33332 23.9337V40.067C7.33332 43.7153 10.285 46.667 13.9333 46.667H30.0667C31.8171 46.667 33.4958 45.9716 34.7336 44.7339C35.9713 43.4962 36.6667 41.8174 36.6667 40.067V23.9337C36.6667 20.2853 33.715 17.3337 30.0667 17.3337H13.9333ZM31.625 20.0837C32.2328 20.0837 32.8157 20.3251 33.2454 20.7549C33.6752 21.1846 33.9167 21.7675 33.9167 22.3753C33.9167 22.9831 33.6752 23.566 33.2454 23.9958C32.8157 24.4255 32.2328 24.667 31.625 24.667C31.0172 24.667 30.4343 24.4255 30.0045 23.9958C29.5748 23.566 29.3333 22.9831 29.3333 22.3753C29.3333 21.7675 29.5748 21.1846 30.0045 20.7549C30.4343 20.3251 31.0172 20.0837 31.625 20.0837ZM22 22.8337C24.4311 22.8337 26.7627 23.7994 28.4818 25.5185C30.2009 27.2376 31.1667 29.5692 31.1667 32.0003C31.1667 34.4315 30.2009 36.7631 28.4818 38.4821C26.7627 40.2012 24.4311 41.167 22 41.167C19.5688 41.167 17.2373 40.2012 15.5182 38.4821C13.7991 36.7631 12.8333 34.4315 12.8333 32.0003C12.8333 29.5692 13.7991 27.2376 15.5182 25.5185C17.2373 23.7994 19.5688 22.8337 22 22.8337ZM22 26.5003C20.5413 26.5003 19.1424 27.0798 18.1109 28.1112C17.0795 29.1427 16.5 30.5416 16.5 32.0003C16.5 33.459 17.0795 34.858 18.1109 35.8894C19.1424 36.9209 20.5413 37.5003 22 37.5003C23.4587 37.5003 24.8576 36.9209 25.8891 35.8894C26.9205 34.858 27.5 33.459 27.5 32.0003C27.5 30.5416 26.9205 29.1427 25.8891 28.1112C24.8576 27.0798 23.4587 26.5003 22 26.5003Z" fill="url(#paint0_linear_74_10326)"/>
<path d="M106.5 13.667H121.9C127.767 13.667 132.533 18.4337 132.533 24.3003V39.7003C132.533 42.5205 131.413 45.2251 129.419 47.2192C127.425 49.2134 124.72 50.3337 121.9 50.3337H106.5C100.633 50.3337 95.8667 45.567 95.8667 39.7003V24.3003C95.8667 21.4802 96.987 18.7756 98.9811 16.7814C100.975 14.7873 103.68 13.667 106.5 13.667ZM106.133 17.3337C104.383 17.3337 102.704 18.029 101.466 19.2668C100.229 20.5045 99.5333 22.1832 99.5333 23.9337V40.067C99.5333 43.7153 102.485 46.667 106.133 46.667H122.267C124.017 46.667 125.696 45.9716 126.934 44.7339C128.171 43.4962 128.867 41.8174 128.867 40.067V23.9337C128.867 20.2853 125.915 17.3337 122.267 17.3337H106.133ZM123.825 20.0837C124.433 20.0837 125.016 20.3251 125.445 20.7549C125.875 21.1846 126.117 21.7675 126.117 22.3753C126.117 22.9831 125.875 23.566 125.445 23.9958C125.016 24.4255 124.433 24.667 123.825 24.667C123.217 24.667 122.634 24.4255 122.205 23.9958C121.775 23.566 121.533 22.9831 121.533 22.3753C121.533 21.7675 121.775 21.1846 122.205 20.7549C122.634 20.3251 123.217 20.0837 123.825 20.0837ZM114.2 22.8337C116.631 22.8337 118.963 23.7994 120.682 25.5185C122.401 27.2376 123.367 29.5692 123.367 32.0003C123.367 34.4315 122.401 36.7631 120.682 38.4821C118.963 40.2012 116.631 41.167 114.2 41.167C111.769 41.167 109.437 40.2012 107.718 38.4821C105.999 36.7631 105.033 34.4315 105.033 32.0003C105.033 29.5692 105.999 27.2376 107.718 25.5185C109.437 23.7994 111.769 22.8337 114.2 22.8337ZM114.2 26.5003C112.741 26.5003 111.342 27.0798 110.311 28.1112C109.279 29.1427 108.7 30.5416 108.7 32.0003C108.7 33.459 109.279 34.858 110.311 35.8894C111.342 36.9209 112.741 37.5003 114.2 37.5003C115.659 37.5003 117.058 36.9209 118.089 35.8894C119.121 34.858 119.7 33.459 119.7 32.0003C119.7 30.5416 119.121 29.1427 118.089 28.1112C117.058 27.0798 115.659 26.5003 114.2 26.5003Z" fill="url(#paint1_linear_74_10326)"/>
<path d="M198.7 13.667H214.1C219.967 13.667 224.733 18.4337 224.733 24.3003V39.7003C224.733 42.5205 223.613 45.2251 221.619 47.2192C219.625 49.2134 216.92 50.3337 214.1 50.3337H198.7C192.833 50.3337 188.067 45.567 188.067 39.7003V24.3003C188.067 21.4802 189.187 18.7756 191.181 16.7814C193.175 14.7873 195.88 13.667 198.7 13.667ZM198.333 17.3337C196.583 17.3337 194.904 18.029 193.666 19.2668C192.429 20.5045 191.733 22.1832 191.733 23.9337V40.067C191.733 43.7153 194.685 46.667 198.333 46.667H214.467C216.217 46.667 217.896 45.9716 219.134 44.7339C220.371 43.4962 221.067 41.8174 221.067 40.067V23.9337C221.067 20.2853 218.115 17.3337 214.467 17.3337H198.333ZM216.025 20.0837C216.633 20.0837 217.216 20.3251 217.645 20.7549C218.075 21.1846 218.317 21.7675 218.317 22.3753C218.317 22.9831 218.075 23.566 217.645 23.9958C217.216 24.4255 216.633 24.667 216.025 24.667C215.417 24.667 214.834 24.4255 214.405 23.9958C213.975 23.566 213.733 22.9831 213.733 22.3753C213.733 21.7675 213.975 21.1846 214.405 20.7549C214.834 20.3251 215.417 20.0837 216.025 20.0837ZM206.4 22.8337C208.831 22.8337 211.163 23.7994 212.882 25.5185C214.601 27.2376 215.567 29.5692 215.567 32.0003C215.567 34.4315 214.601 36.7631 212.882 38.4821C211.163 40.2012 208.831 41.167 206.4 41.167C203.969 41.167 201.637 40.2012 199.918 38.4821C198.199 36.7631 197.233 34.4315 197.233 32.0003C197.233 29.5692 198.199 27.2376 199.918 25.5185C201.637 23.7994 203.969 22.8337 206.4 22.8337ZM206.4 26.5003C204.941 26.5003 203.542 27.0798 202.511 28.1112C201.479 29.1427 200.9 30.5416 200.9 32.0003C200.9 33.459 201.479 34.858 202.511 35.8894C203.542 36.9209 204.941 37.5003 206.4 37.5003C207.859 37.5003 209.258 36.9209 210.289 35.8894C211.321 34.858 211.9 33.459 211.9 32.0003C211.9 30.5416 211.321 29.1427 210.289 28.1112C209.258 27.0798 207.859 26.5003 206.4 26.5003Z" fill="url(#paint2_linear_74_10326)"/>
<path d="M291.633 14H307.033C312.9 14 317.667 18.7667 317.667 24.6333V40.0333C317.667 42.8535 316.546 45.5581 314.552 47.5522C312.558 49.5464 309.853 50.6667 307.033 50.6667H291.633C285.767 50.6667 281 45.9 281 40.0333V24.6333C281 21.8132 282.12 19.1086 284.114 17.1144C286.109 15.1203 288.813 14 291.633 14ZM291.267 17.6667C289.516 17.6667 287.838 18.362 286.6 19.5998C285.362 20.8375 284.667 22.5162 284.667 24.2667V40.4C284.667 44.0483 287.618 47 291.267 47H307.4C309.15 47 310.829 46.3046 312.067 45.0669C313.305 43.8292 314 42.1504 314 40.4V24.2667C314 20.6183 311.048 17.6667 307.4 17.6667H291.267ZM308.958 20.4167C309.566 20.4167 310.149 20.6581 310.579 21.0879C311.009 21.5177 311.25 22.1005 311.25 22.7083C311.25 23.3161 311.009 23.899 310.579 24.3288C310.149 24.7586 309.566 25 308.958 25C308.351 25 307.768 24.7586 307.338 24.3288C306.908 23.899 306.667 23.3161 306.667 22.7083C306.667 22.1005 306.908 21.5177 307.338 21.0879C307.768 20.6581 308.351 20.4167 308.958 20.4167ZM299.333 23.1667C301.764 23.1667 304.096 24.1324 305.815 25.8515C307.534 27.5706 308.5 29.9022 308.5 32.3333C308.5 34.7645 307.534 37.0961 305.815 38.8151C304.096 40.5342 301.764 41.5 299.333 41.5C296.902 41.5 294.571 40.5342 292.852 38.8151C291.132 37.0961 290.167 34.7645 290.167 32.3333C290.167 29.9022 291.132 27.5706 292.852 25.8515C294.571 24.1324 296.902 23.1667 299.333 23.1667ZM299.333 26.8333C297.875 26.8333 296.476 27.4128 295.444 28.4442C294.413 29.4757 293.833 30.8746 293.833 32.3333C293.833 33.792 294.413 35.191 295.444 36.2224C296.476 37.2539 297.875 37.8333 299.333 37.8333C300.792 37.8333 302.191 37.2539 303.222 36.2224C304.254 35.191 304.833 33.792 304.833 32.3333C304.833 30.8746 304.254 29.4757 303.222 28.4442C302.191 27.4128 300.792 26.8333 299.333 26.8333Z" fill="url(#paint3_linear_74_10326)"/>
<path d="M383.1 13.667H398.5C404.367 13.667 409.133 18.4337 409.133 24.3003V39.7003C409.133 42.5205 408.013 45.2251 406.019 47.2192C404.025 49.2134 401.32 50.3337 398.5 50.3337H383.1C377.233 50.3337 372.467 45.567 372.467 39.7003V24.3003C372.467 21.4802 373.587 18.7756 375.581 16.7814C377.575 14.7873 380.28 13.667 383.1 13.667ZM382.733 17.3337C380.983 17.3337 379.304 18.029 378.066 19.2668C376.829 20.5045 376.133 22.1832 376.133 23.9337V40.067C376.133 43.7153 379.085 46.667 382.733 46.667H398.867C400.617 46.667 402.296 45.9716 403.534 44.7339C404.771 43.4962 405.467 41.8174 405.467 40.067V23.9337C405.467 20.2853 402.515 17.3337 398.867 17.3337H382.733ZM400.425 20.0837C401.033 20.0837 401.616 20.3251 402.045 20.7549C402.475 21.1846 402.717 21.7675 402.717 22.3753C402.717 22.9831 402.475 23.566 402.045 23.9958C401.616 24.4255 401.033 24.667 400.425 24.667C399.817 24.667 399.234 24.4255 398.805 23.9958C398.375 23.566 398.133 22.9831 398.133 22.3753C398.133 21.7675 398.375 21.1846 398.805 20.7549C399.234 20.3251 399.817 20.0837 400.425 20.0837ZM390.8 22.8337C393.231 22.8337 395.563 23.7994 397.282 25.5185C399.001 27.2376 399.967 29.5692 399.967 32.0003C399.967 34.4315 399.001 36.7631 397.282 38.4821C395.563 40.2012 393.231 41.167 390.8 41.167C388.369 41.167 386.037 40.2012 384.318 38.4821C382.599 36.7631 381.633 34.4315 381.633 32.0003C381.633 29.5692 382.599 27.2376 384.318 25.5185C386.037 23.7994 388.369 22.8337 390.8 22.8337ZM390.8 26.5003C389.341 26.5003 387.942 27.0798 386.911 28.1112C385.879 29.1427 385.3 30.5416 385.3 32.0003C385.3 33.459 385.879 34.858 386.911 35.8894C387.942 36.9209 389.341 37.5003 390.8 37.5003C392.259 37.5003 393.658 36.9209 394.689 35.8894C395.721 34.858 396.3 33.459 396.3 32.0003C396.3 30.5416 395.721 29.1427 394.689 28.1112C393.658 27.0798 392.259 26.5003 390.8 26.5003Z" fill="url(#paint4_linear_74_10326)"/>
<path d="M475.3 13.667H490.7C496.567 13.667 501.333 18.4337 501.333 24.3003V39.7003C501.333 42.5205 500.213 45.2251 498.219 47.2192C496.225 49.2134 493.52 50.3337 490.7 50.3337H475.3C469.433 50.3337 464.667 45.567 464.667 39.7003V24.3003C464.667 21.4802 465.787 18.7756 467.781 16.7814C469.775 14.7873 472.48 13.667 475.3 13.667ZM474.933 17.3337C473.183 17.3337 471.504 18.029 470.266 19.2668C469.029 20.5045 468.333 22.1832 468.333 23.9337V40.067C468.333 43.7153 471.285 46.667 474.933 46.667H491.067C492.817 46.667 494.496 45.9716 495.734 44.7339C496.971 43.4962 497.667 41.8174 497.667 40.067V23.9337C497.667 20.2853 494.715 17.3337 491.067 17.3337H474.933ZM492.625 20.0837C493.233 20.0837 493.816 20.3251 494.245 20.7549C494.675 21.1846 494.917 21.7675 494.917 22.3753C494.917 22.9831 494.675 23.566 494.245 23.9958C493.816 24.4255 493.233 24.667 492.625 24.667C492.017 24.667 491.434 24.4255 491.005 23.9958C490.575 23.566 490.333 22.9831 490.333 22.3753C490.333 21.7675 490.575 21.1846 491.005 20.7549C491.434 20.3251 492.017 20.0837 492.625 20.0837ZM483 22.8337C485.431 22.8337 487.763 23.7994 489.482 25.5185C491.201 27.2376 492.167 29.5692 492.167 32.0003C492.167 34.4315 491.201 36.7631 489.482 38.4821C487.763 40.2012 485.431 41.167 483 41.167C480.569 41.167 478.237 40.2012 476.518 38.4821C474.799 36.7631 473.833 34.4315 473.833 32.0003C473.833 29.5692 474.799 27.2376 476.518 25.5185C478.237 23.7994 480.569 22.8337 483 22.8337ZM483 26.5003C481.541 26.5003 480.142 27.0798 479.111 28.1112C478.079 29.1427 477.5 30.5416 477.5 32.0003C477.5 33.459 478.079 34.858 479.111 35.8894C480.142 36.9209 481.541 37.5003 483 37.5003C484.459 37.5003 485.858 36.9209 486.889 35.8894C487.921 34.858 488.5 33.459 488.5 32.0003C488.5 30.5416 487.921 29.1427 486.889 28.1112C485.858 27.0798 484.459 26.5003 483 26.5003Z" fill="url(#paint5_linear_74_10326)"/>
<defs>
<linearGradient id="paint0_linear_74_10326" x1="3.49991" y1="14" x2="40.4999" y2="50" gradientUnits="userSpaceOnUse">
<stop stop-color="#C6F1F7"/>
<stop offset="0.36" stop-color="#446EEB"/>
<stop offset="0.74" stop-color="#B877FF"/>
<stop offset="1" stop-color="#C2E9CD"/>
</linearGradient>
<linearGradient id="paint1_linear_74_10326" x1="95.6999" y1="14" x2="132.7" y2="50" gradientUnits="userSpaceOnUse">
<stop stop-color="#C6F1F7"/>
<stop offset="0.36" stop-color="#446EEB"/>
<stop offset="0.74" stop-color="#B877FF"/>
<stop offset="1" stop-color="#C2E9CD"/>
</linearGradient>
<linearGradient id="paint2_linear_74_10326" x1="187.9" y1="14" x2="224.9" y2="50" gradientUnits="userSpaceOnUse">
<stop stop-color="#C6F1F7"/>
<stop offset="0.36" stop-color="#446EEB"/>
<stop offset="0.74" stop-color="#B877FF"/>
<stop offset="1" stop-color="#C2E9CD"/>
</linearGradient>
<linearGradient id="paint3_linear_74_10326" x1="280.833" y1="14.333" x2="317.833" y2="50.333" gradientUnits="userSpaceOnUse">
<stop stop-color="#C6F1F7"/>
<stop offset="0.36" stop-color="#446EEB"/>
<stop offset="0.74" stop-color="#B877FF"/>
<stop offset="1" stop-color="#C2E9CD"/>
</linearGradient>
<linearGradient id="paint4_linear_74_10326" x1="372.3" y1="14" x2="409.3" y2="50" gradientUnits="userSpaceOnUse">
<stop stop-color="#C6F1F7"/>
<stop offset="0.36" stop-color="#446EEB"/>
<stop offset="0.74" stop-color="#B877FF"/>
<stop offset="1" stop-color="#C2E9CD"/>
</linearGradient>
<linearGradient id="paint5_linear_74_10326" x1="464.5" y1="14" x2="501.5" y2="50" gradientUnits="userSpaceOnUse">
<stop stop-color="#C6F1F7"/>
<stop offset="0.36" stop-color="#446EEB"/>
<stop offset="0.74" stop-color="#B877FF"/>
<stop offset="1" stop-color="#C2E9CD"/>
</linearGradient>
</defs>
</svg>
