<svg width="77" height="29" viewBox="0 0 77 29" fill="none" xmlns="http://www.w3.org/2000/svg">
<path d="M50.0801 21.7493L50.0711 21.8437L50.0085 21.8497L50.0801 21.7493ZM50.0801 21.7493L49.9929 21.6871L49.9981 21.7414L50.0801 21.7493ZM17.5305 6.91678L22.958 4.33429L21.3546 10.1207L21.2181 10.6131L21.7128 10.7411L26.3051 11.9297L26.4309 11.9623L26.5568 11.9297L31.1491 10.7411L31.6437 10.6131L31.5073 10.1207L29.9039 4.33429L35.3314 6.91678L35.7921 7.13598L36.0041 6.67194L38.5 1.20874L40.9959 6.67194L41.2079 7.13598L41.6686 6.91678L47.0961 4.33429L45.4927 10.1207L45.3562 10.6131L45.8509 10.7411L50.4432 11.9297L50.5691 11.9623L50.6949 11.9297L55.2872 10.7411L55.7819 10.6131L55.6454 10.1207L54.042 4.33429L59.4695 6.91678L59.9302 7.13598L60.1422 6.67194L62.6381 1.20875L65.134 6.67194L65.346 7.13598L65.8067 6.91678L71.2342 4.33429L69.6308 10.1207L69.4944 10.613L69.989 10.7411L75.8074 12.2471L70.8558 15.65L70.4346 15.9395L70.7314 16.3556L74.2192 21.2448L68.2354 20.6723L67.7272 20.6237L67.6868 21.1326L67.2121 27.1184L62.996 22.8374L62.6381 22.474L62.2802 22.8374L58.0641 27.1185L57.5894 21.1326L57.549 20.6237L57.0408 20.6723L51.057 21.2448L54.5448 16.3556L54.8416 15.9395L54.4204 15.65L50.8535 13.1987L50.5691 13.0032L50.2846 13.1987L46.7177 15.65L46.2964 15.9395L46.5933 16.3556L50.0811 21.2448L44.0973 20.6723L43.5891 20.6237L43.5487 21.1326L43.074 27.1185L38.8579 22.8374L38.5 22.474L38.1421 22.8374L33.926 27.1185L33.4513 21.1326L33.4109 20.6237L32.9027 20.6723L26.9189 21.2448L30.4067 16.3556L30.7035 15.9395L30.2823 15.65L26.7154 13.1987L26.4309 13.0032L26.1464 13.1987L22.5796 15.65L22.1583 15.9395L22.4552 16.3556L25.943 21.2448L19.9592 20.6723L19.451 20.6237L19.4106 21.1326L18.9359 27.1185L14.7198 22.8374L14.3619 22.474L14.004 22.8374L9.78784 27.1185L9.31317 21.1326L9.27281 20.6237L8.76461 20.6723L2.78077 21.2448L6.26856 16.3556L6.56542 15.9395L6.14413 15.65L1.19263 12.2471L7.01101 10.7411L7.50563 10.613L7.3692 10.1207L5.76576 4.33429L11.1933 6.91678L11.654 7.13598L11.866 6.67194L14.3619 1.20875L16.8578 6.67194L17.0698 7.13598L17.5305 6.91678Z" stroke="white"/>
</svg>
