<svg width="105" height="239" viewBox="0 0 105 239" fill="none" xmlns="http://www.w3.org/2000/svg">
<path d="M51.5936 28.8216C50.4814 27.448 49.3513 26.0692 48.1981 24.7031C47.8831 24.3198 47.9149 23.7468 48.2982 23.4319C48.6814 23.1169 49.2545 23.1487 49.5694 23.532C50.7405 24.9034 51.8885 26.2874 52.9955 27.6788C53.3104 28.0621 53.2556 28.6478 52.8544 28.9575C52.6203 29.1607 52.2975 29.2022 52.0293 29.1237C51.8505 29.0714 51.7053 28.9707 51.5757 28.8163L51.5936 28.8216ZM46.0635 19.4589C44.8819 18.1233 43.6825 16.7825 42.4599 15.4543C42.1219 15.0836 41.5489 15.0519 41.173 15.4078C40.8024 15.7458 40.7885 16.3241 41.1265 16.6947C42.3312 18.0177 43.5359 19.3406 44.6996 20.671C44.8165 20.8022 44.9617 20.903 45.1226 20.95C45.4087 21.0337 45.7367 20.9744 45.9761 20.7532C46.3467 20.4152 46.3963 19.8474 46.0583 19.4768L46.0635 19.4589ZM70.604 55.4047C70.8365 55.4727 71.0951 55.4513 71.3315 55.3069C71.7579 55.0434 71.9022 54.4839 71.6387 54.0574C70.704 52.5417 69.7513 51.0207 68.7808 49.4945C68.5174 49.068 67.9474 48.9595 67.5209 49.223C67.0944 49.4865 66.9859 50.0564 67.2494 50.4829C68.2251 51.9912 69.1599 53.507 70.0768 55.0175C70.1906 55.2255 70.3842 55.3598 70.5988 55.4225L70.604 55.4047ZM17.8416 211.018C16.6906 209.711 15.5321 208.362 14.3663 206.973C14.0514 206.59 13.4835 206.54 13.0823 206.85C12.6991 207.165 12.6494 207.733 12.9591 208.134C14.1376 209.546 15.3088 210.918 16.4598 212.225C16.5767 212.356 16.7271 212.439 16.8881 212.486C17.1741 212.57 17.5021 212.51 17.7415 212.289C18.1121 211.951 18.1439 211.378 17.8237 211.013L17.8416 211.018ZM38.7661 11.5591C37.5331 10.2667 36.2769 8.98695 34.9977 7.71983C34.6366 7.36184 34.071 7.37109 33.7182 7.71435C33.3602 8.07549 33.3694 8.64109 33.7127 8.99384C34.974 10.2557 36.2302 11.5355 37.4506 12.8048C37.5727 12.9182 37.7053 12.9958 37.8483 13.0376C38.1523 13.1266 38.4854 13.0493 38.7248 12.8282C39.0776 12.4849 39.0915 11.9067 38.7482 11.5539L38.7661 11.5591ZM64.798 46.3883C65.0483 46.4615 65.33 46.4275 65.5537 46.26C65.9675 45.9734 66.0708 45.4213 65.8021 45.0127C64.798 43.5349 63.7939 42.0571 62.7488 40.5868C62.457 40.1908 61.887 40.0823 61.4911 40.3741C61.0773 40.6607 60.9867 41.2359 61.2785 41.6319C62.3057 43.097 63.315 44.5569 64.3191 46.0347C64.4381 46.2248 64.6191 46.336 64.8158 46.3935L64.798 46.3883ZM7.80401 198.551C7.51221 198.155 6.937 198.064 6.54107 198.356C6.14513 198.648 6.0545 199.223 6.3463 199.619C7.42715 201.1 8.5237 202.527 9.59495 203.908C9.72449 204.062 9.8876 204.168 10.0485 204.215C10.3167 204.294 10.6216 204.247 10.8505 204.062C11.2517 203.752 11.3192 203.19 11.0095 202.788C9.93824 201.407 8.8596 199.985 7.7914 198.528L7.80401 198.551ZM58.1223 37.2923C58.2466 37.4645 58.4097 37.5705 58.5885 37.6228C58.8567 37.7012 59.1437 37.6493 59.3852 37.487C59.7812 37.1952 59.8718 36.62 59.58 36.2241C58.5245 34.7895 57.4279 33.3623 56.3314 31.9351C56.0396 31.5391 55.4591 31.4664 55.058 31.7761C54.6568 32.0858 54.5892 32.6483 54.8989 33.0495C56.0007 34.4588 57.0794 35.8808 58.1171 37.3102L58.1223 37.2923ZM1.67134 189.788C1.38476 189.375 0.837881 189.253 0.406186 189.535C-0.00762906 189.821 -0.128795 190.368 0.152546 190.8C1.16406 192.319 2.18606 193.802 3.18273 195.238C3.30704 195.411 3.48278 195.54 3.66159 195.592C3.91192 195.665 4.19364 195.631 4.43522 195.469C4.84904 195.182 4.93964 194.607 4.64783 194.211C3.65116 192.774 2.64183 191.315 1.63031 189.796L1.67134 189.788ZM102.664 171.679C102.584 173.48 102.473 175.253 102.331 176.997C102.301 177.434 102.574 177.825 102.986 177.945C103.039 177.961 103.111 177.982 103.165 177.998C103.656 178.044 104.096 177.668 104.142 177.177C104.289 175.415 104.41 173.606 104.496 171.788C104.525 171.291 104.143 170.869 103.629 170.835C103.133 170.806 102.706 171.206 102.677 171.702L102.664 171.679ZM101.786 182.311C101.575 184.094 101.311 185.86 101.039 187.586C100.962 188.049 101.243 188.48 101.672 188.606C101.708 188.616 101.744 188.627 101.78 188.637C102.278 188.725 102.743 188.395 102.813 187.891C103.113 186.135 103.36 184.363 103.581 182.545C103.646 182.059 103.28 181.584 102.789 181.537C102.285 181.467 101.851 181.825 101.781 182.329L101.786 182.311ZM31.1369 3.93112C29.8471 2.69976 28.5396 1.46318 27.2089 0.239239C26.8425 -0.100866 26.2717 -0.0737462 25.9316 0.292621C25.5915 0.658988 25.6186 1.22984 25.985 1.56994C27.2978 2.78865 28.6106 4.00736 29.8824 5.23348C29.9867 5.34162 30.1245 5.40135 30.2496 5.43796C30.5536 5.52688 30.9099 5.437 31.1545 5.19798C31.4946 4.83161 31.4854 4.266 31.1242 3.90802L31.1369 3.93112ZM102.798 161.003C102.835 162.8 102.837 164.586 102.826 166.349C102.823 166.756 103.108 167.111 103.483 167.221C103.555 167.242 103.644 167.268 103.726 167.253C104.228 167.264 104.637 166.86 104.648 166.358C104.664 164.577 104.663 162.791 104.613 160.971C104.606 160.464 104.196 160.073 103.689 160.08C103.183 160.087 102.791 160.496 102.798 161.003ZM100.054 192.811C99.6771 194.564 99.2644 196.306 98.8316 197.985C98.6956 198.45 98.9791 198.94 99.4619 199.082L99.4798 199.087C99.9625 199.228 100.458 198.927 100.582 198.439C101.025 196.724 101.443 194.964 101.83 193.175C101.936 192.682 101.611 192.199 101.136 192.098C100.643 191.993 100.165 192.299 100.059 192.793L100.054 192.811ZM102.588 155.681C102.609 156.076 102.881 156.407 103.238 156.512C103.328 156.538 103.435 156.57 103.54 156.542C104.034 156.512 104.431 156.085 104.401 155.59C104.317 153.819 104.185 152.014 104.036 150.204C103.987 149.705 103.555 149.326 103.055 149.374C102.556 149.422 102.177 149.854 102.225 150.354C102.38 152.146 102.482 153.923 102.588 155.681ZM95.6186 113.617C95.7011 113.933 95.9454 114.159 96.2314 114.243C96.3924 114.29 96.5638 114.302 96.733 114.254C97.2175 114.124 97.4996 113.624 97.3695 113.14C96.8992 111.43 96.3983 109.692 95.8743 107.966C95.7264 107.476 95.2214 107.212 94.7495 107.365C94.2598 107.513 93.9956 108.018 94.1487 108.49C94.6727 110.216 95.1662 111.913 95.6365 113.623L95.6186 113.617ZM100.25 134.48C100.304 134.826 100.573 135.099 100.895 135.193C101.02 135.23 101.156 135.23 101.297 135.213C101.789 135.124 102.119 134.658 102.048 134.172C101.747 132.414 101.428 130.651 101.096 128.866C101.007 128.374 100.518 128.056 100.026 128.145C99.5342 128.234 99.2163 128.723 99.3054 129.215C99.6423 130.983 99.9665 132.728 100.255 134.462L100.25 134.48ZM51.7248 235.663C50.0977 235.187 48.4535 234.57 46.7998 233.853C46.3506 233.664 45.8042 233.873 45.6146 234.322C45.4197 234.789 45.6339 235.317 46.0831 235.507C47.8084 236.245 49.524 236.882 51.2227 237.379C51.7055 237.521 52.214 237.242 52.3499 236.777C52.4912 236.295 52.2307 235.791 51.748 235.65L51.7248 235.663ZM25.2144 218.726C23.9731 217.528 22.7118 216.267 21.4661 214.951C21.1229 214.598 20.5446 214.584 20.1918 214.928C19.8391 215.271 19.8252 215.849 20.1684 216.202C21.4446 217.546 22.7239 218.813 23.9778 220.034C24.0821 220.142 24.2199 220.202 24.3451 220.238C24.649 220.327 25.0053 220.237 25.2499 219.998C25.59 219.632 25.5808 219.066 25.2197 218.708L25.2144 218.726ZM72.1646 235.198C70.5433 235.83 68.8871 236.316 67.1781 236.651C66.6862 236.74 66.3683 237.229 66.4574 237.721C66.5294 238.072 66.7862 238.322 67.0902 238.411C67.2333 238.453 67.3689 238.453 67.5098 238.436C69.3007 238.087 71.1031 237.566 72.8116 236.901C73.2708 236.725 73.5044 236.191 73.3282 235.732C73.1341 235.268 72.6186 235.039 72.1594 235.216L72.1646 235.198ZM102.724 145.861C103.224 145.813 103.59 145.357 103.524 144.852C103.323 143.085 103.109 141.295 102.854 139.512C102.783 139.026 102.322 138.677 101.835 138.748C101.331 138.814 101 139.281 101.071 139.767C101.326 141.55 101.551 143.304 101.734 145.066C101.778 145.448 102.042 145.739 102.382 145.838C102.489 145.869 102.619 145.888 102.742 145.866L102.724 145.861ZM99.9753 123.607C99.5922 121.865 99.1733 120.112 98.7365 118.353C98.6244 117.874 98.1298 117.574 97.6453 117.704C97.1608 117.834 96.8661 118.311 96.9961 118.795C97.4381 120.536 97.8444 122.266 98.2096 124.003C98.2869 124.336 98.5259 124.581 98.8477 124.675C98.9908 124.717 99.1442 124.723 99.2903 124.688C99.7875 124.581 100.087 124.087 99.9753 123.607ZM89.379 221.871C88.9612 221.574 88.4104 221.665 88.1135 222.083C87.0653 223.543 85.9666 224.91 84.8172 226.185C84.4771 226.551 84.5042 227.122 84.8884 227.467C84.9979 227.558 85.1126 227.63 85.2377 227.667C85.5596 227.761 85.9159 227.671 86.1657 227.414C87.3665 226.096 88.5042 224.662 89.5859 223.154C89.8776 222.754 89.7916 222.186 89.3738 221.889L89.379 221.871ZM98.4934 202.525C97.9801 202.356 97.5126 202.627 97.3535 203.104C96.7925 204.823 96.2062 206.495 95.564 208.093C95.387 208.566 95.6065 209.076 96.0735 209.271C96.0914 209.276 96.1272 209.287 96.145 209.292C96.592 209.423 97.0669 209.193 97.2335 208.756C97.8861 207.123 98.4881 205.397 99.0543 203.66C99.1955 203.177 98.953 202.679 98.4755 202.52L98.4934 202.525ZM62.0387 237.166C60.3419 237.194 58.5922 237.07 56.8434 236.811C56.3397 236.741 55.8924 237.076 55.8048 237.574C55.7329 238.019 56.0143 238.451 56.4434 238.577C56.4792 238.587 56.5149 238.597 56.5685 238.613C58.4119 238.881 60.2741 239.018 62.0656 238.998C62.5723 238.991 62.9639 238.582 62.9569 238.075C62.9498 237.568 62.5402 237.177 62.0335 237.184L62.0387 237.166ZM94.6737 212.53C94.2297 212.323 93.6707 212.509 93.4631 212.953C92.698 214.573 91.8487 216.149 90.9898 217.625C90.7286 218.054 90.8787 218.602 91.307 218.863C91.3785 218.884 91.4448 218.923 91.5163 218.944C91.9097 219.059 92.3458 218.895 92.5503 218.528C93.4427 217.003 94.2846 215.386 95.0833 213.718C95.2961 213.256 95.105 212.715 94.661 212.507L94.6737 212.53ZM82.3498 229.908C82.0349 229.525 81.4492 229.47 81.0786 229.808C79.7355 230.949 78.3061 231.986 76.865 232.865C76.4385 233.129 76.2942 233.688 76.5577 234.115C76.6768 234.305 76.8652 234.457 77.0798 234.52C77.3122 234.588 77.5708 234.566 77.8071 234.422C79.3408 233.492 80.8447 232.399 82.2623 231.203C82.6456 230.888 82.7005 230.302 82.3624 229.931L82.3498 229.908ZM82.0557 72.9246C81.2649 71.315 80.4509 69.7182 79.6191 68.1161C79.3787 67.677 78.8475 67.5022 78.3905 67.7373C77.9514 67.9776 77.7766 68.5088 78.0117 68.9658C78.8488 70.55 79.6449 72.1417 80.4231 73.7281C80.5496 73.9592 80.7507 74.1345 80.9831 74.2025C81.1977 74.2653 81.4332 74.2565 81.6412 74.1426C82.0929 73.9254 82.273 73.3763 82.0557 72.9246ZM33.2832 225.648C31.9233 224.59 30.5433 223.468 29.1791 222.293C28.8075 221.971 28.2314 222.016 27.8912 222.382C27.569 222.754 27.6141 223.33 27.9857 223.652C29.3805 224.856 30.7909 226.006 32.1814 227.092C32.2782 227.159 32.3802 227.209 32.4875 227.24C32.8272 227.339 33.2298 227.224 33.4543 226.921C33.7639 226.526 33.6779 225.958 33.2832 225.648ZM76.0247 64.6771C76.2392 64.7398 76.4978 64.7184 76.7058 64.6046C77.145 64.3642 77.3071 63.8099 77.0668 63.3708C76.2066 61.7993 75.3233 60.2403 74.4221 58.6762C74.1818 58.2371 73.6222 58.0928 73.1779 58.351C72.7388 58.5914 72.5945 59.1509 72.8527 59.5952C73.7591 61.1415 74.6245 62.6952 75.49 64.2489C75.6038 64.4569 75.8101 64.6143 76.0247 64.6771ZM92.5455 97.7139C92.3745 97.2368 91.8642 96.9905 91.3871 97.1615C90.9101 97.3325 90.6638 97.8428 90.8348 98.3199C91.4281 100.007 92.0214 101.695 92.5611 103.367C92.6488 103.664 92.8982 103.873 93.1665 103.952C93.3453 104.004 93.5219 103.997 93.7142 103.937C94.186 103.784 94.4555 103.261 94.2845 102.784C93.7322 101.089 93.144 99.3836 92.5328 97.6908L92.5455 97.7139ZM89.5782 93.8566C89.757 93.9089 89.9694 93.9128 90.149 93.8295C90.6082 93.6532 90.8598 93.1251 90.6657 92.6607C90.0261 90.9983 89.3687 89.3308 88.6755 87.6528C88.4814 87.1884 87.9607 86.9778 87.5015 87.1541C87.0371 87.3482 86.8265 87.8689 87.0027 88.3281C87.6833 89.983 88.3407 91.6505 88.9676 93.2897C89.0784 93.5745 89.2974 93.755 89.5656 93.8335L89.5782 93.8566ZM42.1084 231.51C40.6216 230.687 39.1074 229.759 37.5962 228.754C37.1731 228.475 36.6171 228.584 36.338 229.007C36.059 229.43 36.1681 229.986 36.5911 230.265C38.1329 231.298 39.7008 232.242 41.236 233.099C41.3075 233.12 41.3559 233.154 41.4274 233.174C41.8208 233.29 42.2569 233.126 42.4666 232.741C42.7098 232.307 42.5419 231.754 42.1084 231.51ZM84.3821 77.7784C84.1648 77.3267 83.621 77.1288 83.1692 77.346C82.7175 77.5632 82.5248 78.0892 82.7368 78.5588C83.4867 80.1758 84.2313 81.8106 84.9402 83.435C85.0562 83.7018 85.2625 83.8592 85.5129 83.9325C85.7095 83.99 85.9271 83.976 86.1247 83.8979C86.5891 83.7038 86.787 83.16 86.5929 82.6955C85.8892 81.0533 85.1446 79.4185 84.3821 77.7784Z" fill="#446EEB"/>
</svg>
